<svg xmlns="http://www.w3.org/2000/svg" viewBox="0 0 64 64" role="img" aria-label="BM monogram">
  <rect width="64" height="64" rx="14" fill="#1c1917" />
  <path
    d="M16 45V19h10.5c4.7 0 7.6 2.3 7.6 6.1 0 2.6-1.5 4.6-3.9 5.4 3 .7 4.8 2.9 4.8 6 0 4.3-3.2 8.5-8.8 8.5H16Zm5.4-15.6h4.3c2.2 0 3.5-1.2 3.5-3.1s-1.3-3-3.5-3h-4.3v6.1Zm0 11.3h4.8c2.5 0 4-1.4 4-3.6s-1.5-3.5-4-3.5h-4.8v7.1Z"
    fill="#e7e5e4"
  />
  <path d="M38 45V19h4.6l5.2 11.4L53 19h4.6v26h-4.9V29.2l-4.1 9h-1.8l-4-9V45H38Z" fill="#7dd3fc" />
</svg>
